<svg width="800" height="120" viewBox="0 0 800 120" xmlns="http://www.w3.org/2000/svg">
  <defs>
    <linearGradient id="bgGrad" x1="0%" y1="0%" x2="100%" y2="0%">
      <stop offset="0%" style="stop-color:#0d1117"/>
      <stop offset="50%" style="stop-color:#161b22"/>
      <stop offset="100%" style="stop-color:#0d1117"/>
    </linearGradient>
    <linearGradient id="textGrad" x1="0%" y1="0%" x2="100%" y2="0%">
      <stop offset="0%" style="stop-color:#00FFB3"/>
      <stop offset="50%" style="stop-color:#00c9ff"/>
      <stop offset="100%" style="stop-color:#00FFB3"/>
    </linearGradient>
    <filter id="glow">
      <feGaussianBlur stdDeviation="3" result="coloredBlur"/>
      <feMerge><feMergeNode in="coloredBlur"/><feMergeNode in="SourceGraphic"/></feMerge>
    </filter>
  </defs>
  <rect width="800" height="120" fill="url(#bgGrad)" rx="12"/>
  <line x1="0" y1="4" x2="800" y2="4" stroke="#00FFB3" stroke-width="1" opacity="0.3"/>
  <line x1="0" y1="116" x2="800" y2="116" stroke="#00FFB3" stroke-width="1" opacity="0.3"/>
  <rect x="8" y="8" width="20" height="2" fill="#00FFB3" opacity="0.7"/>
  <rect x="8" y="8" width="2" height="20" fill="#00FFB3" opacity="0.7"/>
  <rect x="772" y="8" width="20" height="2" fill="#00FFB3" opacity="0.7"/>
  <rect x="790" y="8" width="2" height="20" fill="#00FFB3" opacity="0.7"/>
  <rect x="8" y="110" width="20" height="2" fill="#00FFB3" opacity="0.7"/>
  <rect x="8" y="92" width="2" height="20" fill="#00FFB3" opacity="0.7"/>
  <rect x="772" y="110" width="20" height="2" fill="#00FFB3" opacity="0.7"/>
  <rect x="790" y="92" width="2" height="20" fill="#00FFB3" opacity="0.7"/>
  <text x="400" y="52" text-anchor="middle" font-family="'Courier New', monospace" font-size="32" font-weight="bold" fill="url(#textGrad)" filter="url(#glow)">&lt; Zayd /&gt;</text>
  <text x="400" y="82" text-anchor="middle" font-family="'Courier New', monospace" font-size="14" fill="#8b949e" letter-spacing="4">FULL STACK DEVELOPER · WEB3 · CLOUD</text>
  <rect x="490" y="66" width="10" height="3" fill="#00FFB3" opacity="0.9">
    <animate attributeName="opacity" values="0;1;0" dur="1.2s" repeatCount="indefinite"/>
  </rect>
</svg>
